<svg id="Layer_1" data-name="Layer 1" xmlns="http://www.w3.org/2000/svg" viewBox="0 0 585 585"><defs><style>.cls-1{fill:#fff;}.cls-2{fill:#342347;}</style></defs><rect class="cls-1" width="585" height="585" rx="30"/><path class="cls-2" d="M291.73,433.68q-106.14,0-212.29,0c-46.58-.09-68.77-24.48-68.83-75.65q-.18-128.44,0-256.88C10.72,51.77,33.9,26.56,79,26.54q213.21-.12,426.4,0c45.87,0,69,25.61,69,76.11q.06,128.43,0,256.88c0,48.39-22.89,73.94-66.79,74.09C435.68,433.86,363.7,433.68,291.73,433.68Z"/><path class="cls-2" d="M10.41,495.63H573.83c8.94,38.33-5,63.16-37.34,62.88q-242.53-2.09-485.08,0C12.43,558.83,4.13,533.78,10.41,495.63Z"/><path class="cls-1" d="M351.82,264.08c29.82,31.73,49.71,67.81,57.29,112.39-14.86,6-22.38,2.91-26.7-14.35-8.24-32.95-25.64-59.75-51.51-79.43-27.39-20.85-53.28-21-80.83-.4-31.23,23.29-47.18,57.63-57.31,96.84H167.52c10.21-45.4,27.42-84.51,58.8-115-19.69-18.42-41.29-20.15-65-4.25-34.44,23.09-52.49,58.94-57.11,101.35-2.51,23-14.77,17.38-26.51,18-14.17.79-18.76-7-18.69-22q.59-128.43,0-256.88c-.08-16.5,5.83-22.25,20.44-22.22q211.38.45,422.77-.08c17-.06,21.94,7.57,21.83,25.1-.5,81-.21,162-.22,242.94,0,33.15-1.1,34.3-32,33.08-2.95-.12-5.89-.69-9.64-1.16-7.24-53-24.49-99.12-71.47-123.61C390.84,244,371.86,249.39,351.82,264.08Z"/><path class="cls-2" d="M238.63,177.93c-.2,30.56,23.07,55.42,52.15,55.69,28.64.26,53.16-24.79,53.59-54.76.44-30.12-23.47-55.38-52.44-55.42C262.64,123.4,238.82,147.76,238.63,177.93Z"/><path class="cls-2" d="M390.94,120.5c-3.19.67-7.41,1.17-11.41,2.45-14.28,4.56-22,10.22-14.87,29.43,5.31,14.22,4.33,32,2.49,47.8-1.44,12.41,1.92,17.14,12.31,20,19.4,5.25,36.19.63,49.37-14.84,13.73-16.09,16.32-34.93,7.71-54.5S412.49,121.68,390.94,120.5Z"/><path class="cls-2" d="M226.06,134.85c-19.91-16.94-41.21-17.84-59.89-3a51.16,51.16,0,0,0-15.89,58.94c8.67,22,30.5,35.57,52.2,31.41,7.3-1.4,18.83-.75,14.94-15.09C210.51,181.66,213.55,157.47,226.06,134.85Z"/></svg>