<svg id="Layer_1" data-name="Layer 1" xmlns="http://www.w3.org/2000/svg" viewBox="0 0 585 585"><defs><style>.cls-1{fill:#342347;}.cls-2{fill:#fff;}</style></defs><rect class="cls-1" width="585" height="585" rx="30"/><path class="cls-2" d="M290.73,433.68q-106.14,0-212.29,0C31.86,433.56,9.68,409.17,9.61,358q-.16-128.44,0-256.88C9.72,51.77,32.9,26.56,78,26.54q213.2-.12,426.39,0c45.88,0,69,25.61,69,76.11q.07,128.43,0,256.88c0,48.39-22.89,73.94-66.79,74.09C434.68,433.86,362.7,433.68,290.73,433.68Z"/><path class="cls-2" d="M9.41,495.63H572.83c8.95,38.33-5,63.16-37.34,62.88q-242.53-2.09-485.08,0C11.43,558.83,3.13,533.78,9.41,495.63Z"/><path class="cls-1" d="M350.82,264.08c29.82,31.73,49.71,67.81,57.3,112.39-14.87,6-22.39,2.91-26.71-14.35-8.24-32.95-25.63-59.75-51.5-79.43-27.4-20.85-53.29-21-80.84-.4-31.23,23.29-47.17,57.63-57.31,96.84H166.52c10.21-45.4,27.43-84.51,58.8-115-19.69-18.42-41.29-20.15-65-4.25-34.44,23.09-52.49,58.94-57.11,101.35-2.5,23-14.77,17.38-26.51,18-14.17.79-18.75-7-18.69-22q.59-128.43,0-256.88c-.09-16.5,5.83-22.25,20.43-22.22q211.4.45,422.77-.08c17-.06,21.94,7.57,21.83,25.1-.49,81-.21,162-.22,242.94,0,33.15-1.1,34.3-32,33.08-2.95-.12-5.89-.69-9.64-1.16-7.24-53-24.49-99.12-71.46-123.61C389.85,244,370.86,249.39,350.82,264.08Z"/><path class="cls-2" d="M237.63,177.93c-.2,30.56,23.08,55.42,52.15,55.69,28.64.26,53.17-24.79,53.6-54.76.43-30.12-23.48-55.38-52.45-55.42C261.65,123.4,237.82,147.76,237.63,177.93Z"/><path class="cls-2" d="M390,120.5c-3.19.67-7.42,1.17-11.42,2.45-14.28,4.56-22,10.22-14.87,29.43,5.31,14.22,4.33,32,2.49,47.8-1.44,12.41,1.92,17.14,12.31,20,19.4,5.25,36.19.63,49.37-14.84,13.73-16.09,16.33-34.93,7.71-54.5S411.49,121.68,390,120.5Z"/><path class="cls-2" d="M225.06,134.85c-19.91-16.94-41.21-17.84-59.89-3a51.16,51.16,0,0,0-15.89,58.94c8.67,22,30.5,35.57,52.2,31.41,7.3-1.4,18.83-.75,14.94-15.09C209.52,181.66,212.56,157.47,225.06,134.85Z"/></svg>